<?xml version="1.0" encoding="UTF-8" standalone="no"?>
<svg
   xmlns:dc="http://purl.org/dc/elements/1.1/"
   xmlns:cc="http://creativecommons.org/ns#"
   xmlns:rdf="http://www.w3.org/1999/02/22-rdf-syntax-ns#"
   xmlns:svg="http://www.w3.org/2000/svg"
   xmlns="http://www.w3.org/2000/svg"
   xmlns:sodipodi="http://sodipodi.sourceforge.net/DTD/sodipodi-0.dtd"
   xmlns:inkscape="http://www.inkscape.org/namespaces/inkscape"
   version="1.1"
   id="svg2"
   xml:space="preserve"
   width="1008.674"
   height="145.69861"
   viewBox="0 0 1008.674 145.69861"
   sodipodi:docname="naveapps.svg"
   inkscape:version="1.0 (b51213c273, 2020-08-10)"><metadata
     id="metadata8"><rdf:RDF><cc:Work
         rdf:about=""><dc:format>image/svg+xml</dc:format><dc:type
           rdf:resource="http://purl.org/dc/dcmitype/StillImage" /><dc:title /></cc:Work></rdf:RDF></metadata><defs
     id="defs6"><rect
       x="330.06586"
       y="443.25677"
       width="427.41153"
       height="152.50072"
       id="rect1190" /><clipPath
       clipPathUnits="userSpaceOnUse"
       id="clipPath58"><path
         d="M 0,600 H 800 V 0 H 0 Z"
         id="path56" /></clipPath><clipPath
       clipPathUnits="userSpaceOnUse"
       id="clipPath114"><path
         d="M 0,600 H 800 V 0 H 0 Z"
         id="path112" /></clipPath><clipPath
       clipPathUnits="userSpaceOnUse"
       id="clipPath122"><path
         d="m 627.961,481.875 h 94.091 v -12.667 h -94.091 z"
         id="path120" /></clipPath><clipPath
       clipPathUnits="userSpaceOnUse"
       id="clipPath156"><path
         d="M 0,600 H 800 V 0 H 0 Z"
         id="path154" /></clipPath><clipPath
       clipPathUnits="userSpaceOnUse"
       id="clipPath168"><path
         d="M 175.596,343.624 H 356.001 V 42.2731 H 175.596 Z"
         id="path166" /></clipPath><clipPath
       clipPathUnits="userSpaceOnUse"
       id="clipPath222"><path
         d="M 409.444,306.629 H 589.516 V 208.38 H 409.444 Z"
         id="path220" /></clipPath><clipPath
       clipPathUnits="userSpaceOnUse"
       id="clipPath248"><path
         d="M 0,600 H 800 V 0 H 0 Z"
         id="path246" /></clipPath></defs><sodipodi:namedview
     pagecolor="#ffffff"
     bordercolor="#666666"
     borderopacity="1"
     objecttolerance="10"
     gridtolerance="10"
     guidetolerance="10"
     inkscape:pageopacity="0"
     inkscape:pageshadow="2"
     inkscape:window-width="1920"
     inkscape:window-height="1052"
     id="namedview4"
     showgrid="false"
     inkscape:zoom="0.90509668"
     inkscape:cx="440.80768"
     inkscape:cy="83.119862"
     inkscape:window-x="0"
     inkscape:window-y="0"
     inkscape:window-maximized="1"
     inkscape:current-layer="g10"
     inkscape:document-rotation="0"
     fit-margin-top="0"
     fit-margin-left="0"
     fit-margin-right="0"
     fit-margin-bottom="0" /><g
     id="g10"
     inkscape:groupmode="layer"
     inkscape:label="naveapps ok 1280 (2)"
     transform="matrix(1.3333333,0,0,-1.3333333,-22.94109,506.9665)"><g
       id="g897"><g
         id="g1186"
         transform="matrix(0.52848162,0,0,0.52848162,-104.02991,102.59425)"><g
           id="g1178"
           transform="translate(614.22561,-191.24153)"><ellipse
             style="fill:#b79bbe;fill-opacity:1;stroke-width:0.703877"
             id="path1156"
             cx="455.04541"
             cy="-548.19568"
             transform="matrix(0.44805013,0.89400843,0.93317584,-0.35942016,0,0)"
             rx="92.839699"
             ry="42.189007" /><circle
             style="fill:#ff6982;fill-opacity:0.863831;stroke-width:0.639057"
             id="path1139"
             cx="-301.50528"
             cy="-639.51648"
             r="62.026867"
             transform="scale(1,-1)" /><ellipse
             style="fill:#ff9651;fill-opacity:1;stroke-width:0.698884"
             id="path1156-6"
             cx="610.883"
             cy="-166.02362"
             transform="matrix(-0.453583,0.89121404,-0.93500985,-0.35462175,0,0)"
             rx="91.707222"
             ry="42.106255" /><circle
             style="fill:#b79bbe;fill-opacity:0.86;stroke-width:0.639057"
             id="path1139-3"
             cx="-136.40923"
             cy="635.72772"
             r="62.026863" /><ellipse
             style="fill:#4dd6d3;fill-opacity:0.796103;stroke-width:0.837337"
             id="path1137"
             cx="-217.86046"
             cy="-648.80505"
             transform="scale(1,-1)"
             rx="108.95859"
             ry="65.554207" /></g></g><g
         aria-label="naveapps"
         transform="scale(1,-1)"
         id="text862"
         style="font-style:normal;font-weight:normal;font-size:119.462px;line-height:1.25;font-family:sans-serif;fill:#ff6981;fill-opacity:1;stroke:none;stroke-width:2.98657"><path
           d="m 274.29659,-297.06012 v -30.94066 c 0,-18.51661 -11.10997,-28.9098 -24.96756,-28.9098 -7.40664,0 -13.37974,2.98655 -19.35284,8.84019 l -0.9557,-8.00396 h -13.02136 v 59.01423 h 14.45491 v -30.10442 c 0,-8.95965 6.09256,-16.48576 15.05221,-16.48576 9.31803,0 14.21598,6.80934 14.21598,15.76898 v 30.8212 z"
           style="font-style:normal;font-variant:normal;font-weight:normal;font-stretch:normal;font-family:'Nexa Bold';-inkscape-font-specification:'Nexa Bold, ';fill:#ff6981;fill-opacity:1;stroke-width:2.98657"
           id="path864" /><path
           d="m 333.05323,-347.83147 c -3.34494,-5.85364 -10.87105,-9.55696 -18.75554,-9.55696 -17.20252,-0.11946 -30.70173,10.51266 -30.70173,30.8212 0,20.66692 12.9019,31.4185 30.34335,31.29904 6.57041,-0.11946 15.76898,-3.4644 19.11392,-10.39319 l 0.71677,8.60126 h 13.73813 v -58.89476 h -13.97706 z m -17.44146,3.4644 c 22.93671,0 22.93671,35.71914 0,35.71914 -9.67642,0 -17.44145,-6.68988 -17.44145,-17.9193 0,-11.22943 7.76503,-17.79984 17.44145,-17.79984 z"
           style="font-style:normal;font-variant:normal;font-weight:normal;font-stretch:normal;font-family:'Nexa Bold';-inkscape-font-specification:'Nexa Bold, ';fill:#ff6981;fill-opacity:1;stroke-width:2.98657"
           id="path866" /><path
           d="m 401.27536,-356.07435 -8.12342,19.71123 -8.95965,24.60917 -9.07911,-24.84809 -8.12342,-19.47231 h -15.88844 l 25.20648,59.25315 h 15.76898 l 25.08702,-59.25315 z"
           style="font-style:normal;font-variant:normal;font-weight:normal;font-stretch:normal;font-family:'Nexa Bold';-inkscape-font-specification:'Nexa Bold, ';fill:#ff6981;fill-opacity:1;stroke-width:2.98657"
           id="path868" /><path
           d="m 482.66631,-321.31091 c 2.26978,-24.25078 -10.0348,-36.4359 -29.74603,-36.4359 -19.11392,0 -31.29905,12.90189 -31.29905,30.82119 0,18.875 12.06566,31.41851 32.3742,31.41851 8.95965,0 19.11392,-3.10602 25.32595,-9.55696 l -9.31804,-9.19858 c -3.34493,3.4644 -10.39319,5.49525 -15.76898,5.49525 -10.27373,0 -16.60522,-5.25632 -17.56092,-12.54351 z m -45.75394,-12.06566 c 2.15031,-7.64556 8.60126,-11.46835 16.48575,-11.46835 8.36234,0 14.33544,3.82279 15.29114,11.46835 z"
           style="font-style:normal;font-variant:normal;font-weight:normal;font-stretch:normal;font-family:'Nexa Bold';-inkscape-font-specification:'Nexa Bold, ';fill:#ff6981;fill-opacity:1;stroke-width:2.98657"
           id="path870" /><path
           d="m 540.24514,-347.83147 c -3.34494,-5.85364 -10.87105,-9.55696 -18.75554,-9.55696 -17.20252,-0.11946 -30.70173,10.51266 -30.70173,30.8212 0,20.66692 12.9019,31.4185 30.34335,31.29904 6.57041,-0.11946 15.76898,-3.4644 19.11392,-10.39319 l 0.71677,8.60126 h 13.73813 v -58.89476 h -13.97706 z m -17.44146,3.4644 c 22.93671,0 22.93671,35.71914 0,35.71914 -9.67642,0 -17.44145,-6.68988 -17.44145,-17.9193 0,-11.22943 7.76503,-17.79984 17.44145,-17.79984 z"
           style="font-style:normal;font-variant:normal;font-weight:normal;font-stretch:normal;font-family:'Nexa Bold';-inkscape-font-specification:'Nexa Bold, ';fill:#ff6981;fill-opacity:1;stroke-width:2.98657"
           id="path872" /><path
           d="m 599.65693,-309.72309 c -9.91535,0 -16.72468,-7.52611 -16.72468,-16.72468 0,-9.19857 6.21202,-16.72468 16.72468,-16.72468 10.51265,0 16.72467,7.52611 16.72467,16.72468 0,9.19857 -6.80933,16.72468 -16.72467,16.72468 z m -18.03877,37.27214 v -31.53797 c 4.18117,6.45095 13.37975,8.36234 19.59177,8.36234 18.875,0 29.74604,-13.61866 29.74604,-30.82119 0,-17.32199 -12.06566,-30.8212 -30.22389,-30.8212 -6.68987,0 -14.57436,2.86709 -19.11392,9.4375 l -0.95569,-8.12341 H 567.0438 v 83.50393 z"
           style="font-style:normal;font-variant:normal;font-weight:normal;font-stretch:normal;font-family:'Nexa Bold';-inkscape-font-specification:'Nexa Bold, ';fill:#ff6981;fill-opacity:1;stroke-width:2.98657"
           id="path874" /><path
           d="m 674.32068,-309.72309 c -9.91534,0 -16.72468,-7.52611 -16.72468,-16.72468 0,-9.19857 6.21203,-16.72468 16.72468,-16.72468 10.51266,0 16.72468,7.52611 16.72468,16.72468 0,9.19857 -6.80933,16.72468 -16.72468,16.72468 z m -18.03876,37.27214 v -31.53797 c 4.18117,6.45095 13.37974,8.36234 19.59177,8.36234 18.87499,0 29.74604,-13.61866 29.74604,-30.82119 0,-17.32199 -12.06567,-30.8212 -30.22389,-30.8212 -6.68987,0 -14.57436,2.86709 -19.11392,9.4375 l -0.9557,-8.12341 h -13.61866 v 83.50393 z"
           style="font-style:normal;font-variant:normal;font-weight:normal;font-stretch:normal;font-family:'Nexa Bold';-inkscape-font-specification:'Nexa Bold, ';fill:#ff6981;fill-opacity:1;stroke-width:2.98657"
           id="path876" /><path
           d="m 762.96149,-349.86232 c -6.80933,-5.9731 -13.73813,-7.76503 -22.9367,-7.76503 -10.75158,0 -24.8481,4.77848 -24.8481,18.39715 0,13.37974 13.26029,17.44145 24.37025,18.27768 8.36234,0.47785 11.70728,2.15032 11.70728,6.21202 0,4.30064 -5.13687,7.16772 -10.63212,7.04826 -6.57041,-0.11946 -16.12737,-3.58386 -20.30854,-8.24288 l -7.16772,10.3932 c 8.60126,8.95965 17.9193,10.51265 27.23734,10.51265 16.84414,0 25.32594,-8.95965 25.32594,-19.35284 0,-15.64952 -14.09652,-18.15822 -25.20648,-18.875 -7.52611,-0.47784 -10.99051,-2.62816 -10.99051,-6.45094 0,-3.70332 3.82279,-5.85364 10.75158,-5.85364 5.61472,0 10.3932,1.31408 14.57437,5.25633 z"
           style="font-style:normal;font-variant:normal;font-weight:normal;font-stretch:normal;font-family:'Nexa Bold';-inkscape-font-specification:'Nexa Bold, ';fill:#ff6981;fill-opacity:1;stroke-width:2.98657"
           id="path878" /></g></g></g></svg>
